<svg width="15" height="26" viewBox="0 0 15 26" fill="none" xmlns="http://www.w3.org/2000/svg">
<path d="M4.36877 14.6827C3.74596 14.6827 3.17517 14.6827 2.60436 14.6827C2.11678 14.6827 1.62918 14.6905 1.1429 14.6788C0.633206 14.6671 0.466779 14.5136 0.462878 14.0092C0.451176 12.6855 0.451176 11.3619 0.462878 10.0369C0.468079 9.53506 0.646215 9.37643 1.1494 9.37383C2.09207 9.36863 3.03474 9.37253 3.97741 9.37253C4.09313 9.37253 4.20754 9.37253 4.36877 9.37253C4.36877 9.22951 4.36747 9.10598 4.36877 8.98376C4.39088 7.77714 4.34538 6.56533 4.44809 5.36521C4.71074 2.30967 7.04335 0.127875 10.1093 0.0277575C11.3575 -0.0125497 12.6084 0.00955618 13.8579 0.0134569C14.2974 0.0134569 14.4755 0.194189 14.4781 0.634968C14.4846 1.87409 14.4833 3.11321 14.4781 4.35233C14.4768 4.82692 14.3104 4.99855 13.8215 5.01025C12.9633 5.03105 12.1065 5.03105 11.2483 5.04406C10.2861 5.05836 9.88176 5.43543 9.86226 6.3846C9.84145 7.34547 9.85836 8.30634 9.85836 9.30492C10.004 9.30492 10.1158 9.30492 10.2289 9.30492C11.3198 9.30492 12.4107 9.30362 13.5016 9.30492C14.1894 9.30492 14.3507 9.46615 14.352 10.141C14.352 11.4009 14.3546 12.6621 14.352 13.922C14.3507 14.4863 14.2024 14.6385 13.6342 14.6398C12.3951 14.645 11.1573 14.6411 9.85836 14.6411C9.85836 14.7893 9.85836 14.9206 9.85836 15.0506C9.85836 18.3662 9.85836 21.6805 9.85836 24.9961C9.85836 25.9102 9.76084 26.0051 8.83247 26.0051C7.61416 26.0051 6.39584 26.0064 5.17882 26.0051C4.52741 26.0051 4.36877 25.8465 4.36877 25.2016C4.36877 21.834 4.36877 18.4651 4.36877 15.0975C4.36877 14.9726 4.36877 14.8478 4.36877 14.6801V14.6827Z" fill="white"/>
</svg>
