<svg width="27" height="26" viewBox="0 0 27 26" fill="none" xmlns="http://www.w3.org/2000/svg">
<path d="M26.4545 6.66101V19.3539C26.4116 19.6191 26.3843 19.8883 26.3258 20.1509C25.664 23.0959 23.8814 24.9852 20.9714 25.7926C20.5918 25.8979 20.1952 25.9357 19.8051 26.0059H7.11486C7.03294 25.9903 6.95103 25.9708 6.86781 25.9617C6.15789 25.8836 5.46226 25.7263 4.81735 25.4208C2.02705 24.0997 0.521379 21.8893 0.478472 18.7974C0.425162 14.9396 0.462869 11.0805 0.466769 7.22271C0.466769 5.97319 0.742419 4.78217 1.37823 3.70428C2.81109 1.27415 4.95647 0.0298244 7.77668 0.0155218C11.5669 -0.00528191 15.357 0.00642018 19.1472 0.0155218C19.6348 0.016822 20.1341 0.0428267 20.6087 0.146845C23.5524 0.796962 25.4338 2.58738 26.2413 5.4921C26.3466 5.87177 26.3856 6.27094 26.4545 6.65971V6.66101ZM24.1505 13.0335C24.1505 11.1468 24.1518 9.26018 24.1505 7.37354C24.1505 6.77933 24.0907 6.19163 23.8892 5.62733C23.1532 3.55996 21.3745 2.31823 19.1251 2.31693C15.3531 2.31303 11.5799 2.30523 7.80788 2.32734C7.23318 2.33124 6.63247 2.40795 6.09158 2.58998C4.0125 3.28821 2.77338 5.08903 2.77078 7.33583C2.76558 11.1169 2.75908 14.8993 2.78118 18.6804C2.78508 19.246 2.8618 19.8389 3.03993 20.3733C3.73295 22.4419 5.52727 23.6941 7.75717 23.6993C11.563 23.7084 15.37 23.7071 19.1758 23.6993C20.87 23.6967 22.2379 23.0192 23.2442 21.6475C23.8918 20.7633 24.1544 19.7557 24.1518 18.6687C24.1492 16.7911 24.1518 14.9123 24.1518 13.0348L24.1505 13.0335Z" fill="white"/>
<path d="M20.1569 13.0178C20.1426 16.7066 17.1105 19.727 13.4425 19.7062C9.74855 19.6841 6.73332 16.6493 6.76192 12.984C6.79183 9.29523 9.79536 6.3034 13.4633 6.3086C17.1456 6.3138 20.1699 9.34594 20.1569 13.0178ZM13.4672 8.61911C11.0553 8.60741 9.08414 10.5721 9.07243 12.9983C9.06073 15.4102 11.0241 17.3827 13.4503 17.3944C15.8622 17.4061 17.8334 15.4414 17.8451 13.0152C17.8568 10.6033 15.8922 8.63082 13.4659 8.61911H13.4672Z" fill="white"/>
<path d="M20.4368 4.36068C21.3678 4.36068 22.1428 5.13691 22.1285 6.05618C22.1141 6.97934 21.3561 7.72958 20.4381 7.72958C19.5098 7.72958 18.7335 6.95074 18.7452 6.03147C18.7583 5.10831 19.5137 4.35938 20.4356 4.35938L20.4368 4.36068Z" fill="white"/>
</svg>
