<svg width="27" height="26" viewBox="0 0 27 26" fill="none" xmlns="http://www.w3.org/2000/svg">
<path d="M26.4875 26.0046C25.8621 25.9994 25.2354 25.9929 24.61 25.9916C23.484 25.989 22.3593 25.9916 21.2333 25.9916C21.141 25.9916 21.05 25.9916 20.9147 25.9916C20.9147 25.8602 20.9147 25.7497 20.9147 25.6392C20.9147 22.6916 20.9147 19.744 20.9147 16.7976C20.9147 16.0071 20.8679 15.223 20.604 14.4715C20.1398 13.1492 19.2166 12.5901 17.8683 12.646C16.3457 12.711 15.0572 14.2921 15.0572 15.7665C15.0572 17.1916 15.0481 18.6167 15.0468 20.0417C15.0455 21.9088 15.0468 23.7773 15.0468 25.6444C15.0468 25.7484 15.0468 25.8524 15.0468 25.9734H9.49219V8.45664H15.0364V10.9037C15.1287 10.7854 15.1755 10.7333 15.2119 10.6761C16.3847 8.87141 18.0139 8.00155 20.0995 8.03926C21.323 8.06136 22.4815 8.31101 23.5295 9.00533C24.8349 9.86999 25.6671 11.1078 26.0689 12.6473C26.2522 13.3507 26.3211 14.0866 26.442 14.8083C26.4563 14.8941 26.4732 14.9786 26.4888 15.0644V26.0059L26.4875 26.0046Z" fill="white"/>
<path d="M0.482422 2.63452C0.58644 2.14044 0.716464 1.66065 1.01942 1.24978C1.72414 0.296711 2.68372 -0.0348517 3.79151 0.002855C4.8343 0.0379613 5.71456 0.431935 6.28666 1.3798C7.36715 3.17152 6.5571 5.80189 3.97354 6.03073C3.07248 6.11004 2.21563 5.96962 1.4927 5.33511C0.967411 4.87353 0.639751 4.29232 0.527931 3.5811C0.520129 3.53039 0.498025 3.48228 0.482422 3.43157C0.482422 3.16632 0.482422 2.90107 0.482422 2.63452Z" fill="white"/>
<path d="M0.819336 8.4541H6.37393V25.9734H0.819336V8.4541Z" fill="white"/>
</svg>
