<?xml version="1.0" encoding="UTF-8"?>
<svg id="_레이어_2" data-name="레이어 2" xmlns="http://www.w3.org/2000/svg" xmlns:xlink="http://www.w3.org/1999/xlink" viewBox="0 0 699.38 135.69">
  <defs>
    <style>
      .cls-1 {
        fill: #fff;
      }

      .cls-2 {
        fill: #2c73ff;
      }

      .cls-3 {
        fill: #215dff;
      }

      .cls-4 {
        fill: #1bd2ff;
      }

      .cls-5 {
        fill: #007dff;
      }

      .cls-6 {
        fill: url(#_무제_그라디언트_79);
      }

      .cls-7 {
        fill: #2e8aff;
      }

      .cls-8 {
        fill: #00a8ff;
      }

      .cls-9 {
        fill: #00479d;
      }

      .cls-10 {
        fill: #313cff;
      }

      .cls-11 {
        fill: url(#_무제_그라디언트_75);
      }

      .cls-12 {
        fill: url(#_무제_그라디언트_67);
      }
    </style>
    <linearGradient id="_무제_그라디언트_79" data-name="무제 그라디언트 79" x1="-3852.79" y1="-38.67" x2="-3881.02" y2="-56.08" gradientTransform="translate(-1847.95 3460.67) rotate(119.34)" gradientUnits="userSpaceOnUse">
      <stop offset="0" stop-color="#313cff"/>
      <stop offset="1" stop-color="#1bd2ff"/>
    </linearGradient>
    <linearGradient id="_무제_그라디언트_75" data-name="무제 그라디언트 75" x1="-1993.02" y1="-1141.34" x2="-1964.73" y2="-1124.55" gradientTransform="translate(43.66 2345.7) rotate(59.31)" gradientUnits="userSpaceOnUse">
      <stop offset="0" stop-color="#007dff"/>
      <stop offset="1" stop-color="#313cff"/>
    </linearGradient>
    <linearGradient id="_무제_그라디언트_67" data-name="무제 그라디언트 67" x1="67.9" y1="21.91" x2="104.24" y2="21.91" gradientUnits="userSpaceOnUse">
      <stop offset="0" stop-color="#007dff"/>
      <stop offset="0" stop-color="#007dff"/>
      <stop offset="1" stop-color="#1bd2ff"/>
    </linearGradient>
  </defs>
  <g id="_레이어_6" data-name="레이어 6">
    <g>
      <polygon class="cls-6" points="69.66 114.16 98.09 97.76 106.17 111.61 77.73 128.01 69.66 114.16"/>
      <polygon class="cls-11" points=".07 82.19 .07 49.36 16.1 49.29 16.1 82.11 .07 82.19"/>
      <polygon class="cls-12" points="96.13 37.2 67.9 20.45 76.02 6.62 104.24 23.38 96.13 37.2"/>
      <g>
        <path class="cls-9" d="m175.74,48.53c-2.37,1.67-3.55,3.8-3.55,6.37,0,1.53.52,2.79,1.57,3.76,1.04.97,2.44,1.74,4.18,2.3,3.28,1.12,7.25,1.99,11.92,2.61,4.67.56,8.85,1.74,12.54,3.55,2.44,1.18,4.42,2.79,5.95,4.81,1.53,2.02,2.3,4.7,2.3,8.05,0,2.37-.38,4.46-1.15,6.27-.77,1.81-1.85,3.38-3.24,4.7-2.51,2.51-5.71,4.32-9.62,5.43-3.9,1.05-7.77,1.57-11.6,1.57s-7.7-.59-11.6-1.78c-3.97-1.19-7.21-3.1-9.72-5.75-1.32-1.4-2.4-3.07-3.24-5.02-.77-1.88-1.15-4.04-1.15-6.48h11.18c0,3.34,1.43,5.92,4.29,7.73,2.79,1.81,6.2,2.72,10.24,2.72s7.39-.7,10.24-2.09c2.79-1.39,4.18-3.66,4.18-6.79,0-1.6-.52-2.89-1.57-3.87-1.04-.98-2.47-1.78-4.29-2.4-3.2-1.18-7.14-2.09-11.81-2.72-4.67-.63-8.85-1.85-12.54-3.66-2.44-1.18-4.42-2.82-5.95-4.91-1.6-2.02-2.4-4.7-2.4-8.05,0-2.16.42-4.11,1.25-5.85.77-1.74,1.81-3.24,3.14-4.5,2.44-2.51,5.5-4.32,9.2-5.43,3.69-1.11,7.21-1.67,10.56-1.67,1.81,0,3.69.18,5.64.52,1.95.35,3.86.83,5.75,1.46,3.41,1.32,6.37,3.31,8.88,5.96,2.51,2.65,3.76,6.16,3.76,10.55h-11.18c0-2.79-1.22-5.15-3.66-7.11-2.44-1.88-5.5-2.82-9.2-2.82s-6.86.83-9.3,2.51Z"/>
        <path class="cls-9" d="m224.48,54.9c4.46-4.67,10.42-7,17.87-7s13.14,2.33,17.66,7c4.53,4.67,6.79,10.63,6.79,17.87v1.46c-.07.49-.1.98-.1,1.46h-38.08c.43,3.61,1.7,6.61,3.81,8.99,2.58,2.93,6.1,4.39,10.55,4.39,2.65,0,4.88-.56,6.69-1.67,1.81-1.12,3.31-2.61,4.5-4.5h11.81c-1.74,4.46-4.6,8.05-8.57,10.76-3.97,2.65-8.78,3.97-14.42,3.97-7.8,0-13.94-2.33-18.39-7-4.53-4.67-6.79-10.63-6.79-17.87s2.23-13.2,6.69-17.87Zm31.37,13.9c-.5-3.13-1.62-5.74-3.36-7.84-2.37-3-5.75-4.49-10.14-4.49s-7.8,1.5-10.24,4.49c-1.75,2.1-2.87,4.71-3.37,7.84h27.11Z"/>
        <path class="cls-9" d="m362.99,96.6h-10.66c-6.2-12.82-15.47-32.08-27.8-57.79h12.02c3.82,8.36,10.93,24.03,21.34,47,5.5-12.04,12.67-27.7,21.51-47h11.49c-4.66,9.62-13.97,28.88-27.9,57.79Z"/>
        <path class="cls-9" d="m512.58,37.77h3.76v11.18h12.02v7.84h-12.02v22.16c0,3.76.56,6.27,1.68,7.53,1.11,1.25,2.85,1.88,5.22,1.88,1.81,0,3.38-.1,4.7-.31l1.99-.21v8.25l-1.99.42c-1.32.28-2.89.42-4.7.42-5.5,0-9.79-1.25-12.85-3.76-3-2.51-4.5-7.25-4.5-14.22v-22.16h-7.73v-7.84h7.73v-11.18h6.69Z"/>
        <path class="cls-9" d="m657.05,54.95c4.46-4.67,10.42-7,17.87-7s13.14,2.33,17.66,7c4.53,4.67,6.79,10.63,6.79,17.87v1.46c-.07.49-.1.98-.1,1.46h-38.08c.43,3.61,1.7,6.61,3.81,8.99,2.58,2.93,6.1,4.39,10.55,4.39,2.65,0,4.88-.56,6.69-1.67,1.81-1.12,3.31-2.61,4.5-4.5h11.81c-1.74,4.46-4.6,8.05-8.57,10.76-3.97,2.65-8.78,3.97-14.42,3.97-7.8,0-13.94-2.33-18.39-7-4.53-4.67-6.79-10.63-6.79-17.87s2.23-13.2,6.69-17.87Zm31.37,13.9c-.5-3.13-1.62-5.74-3.36-7.84-2.37-3-5.75-4.49-10.14-4.49s-7.8,1.5-10.24,4.49c-1.75,2.1-2.87,4.71-3.37,7.84h27.11Z"/>
        <path class="cls-9" d="m485.36,53.23c-3.55-3.34-8.29-5.02-14.21-5.02s-10.59,1.71-14.22,5.12c-.68.66-1.22,1.46-1.78,2.25v-6.64h-10.45v47.66h10.45v-27.59c0-4.39,1.43-7.52,4.29-9.41,2.92-1.88,5.95-2.82,9.09-2.82s5.78.94,8.15,2.82c2.37,1.88,3.55,5.02,3.55,9.41v27.59h10.45v-27.59c0-7.17-1.78-12.44-5.33-15.78Z"/>
        <path class="cls-9" d="m634.08,48.95h-1.04v6.4c-.14-.22-.27-.44-.42-.65-3.07-4.53-8.29-6.8-15.68-6.8s-12.61,2.33-16.51,7c-3.97,4.6-5.96,10.38-5.96,17.35s1.99,12.75,5.96,17.35c3.9,4.67,9.41,7,16.51,7s12.61-2.27,15.68-6.79c.14-.2.28-.41.42-.62v5.32c0,4.25-1.36,7.32-4.08,9.2-2.72,1.88-5.89,2.82-9.51,2.82-3.27,0-5.89-.42-7.84-1.25-1.95-.77-3.13-1.95-3.55-3.55h-10.76c.42,3.55,2.44,6.62,6.06,9.2,3.62,2.58,9.06,3.86,16.3,3.86s13.03-1.88,17.35-5.64c4.25-3.83,6.37-9.33,6.37-16.51v-43.69h-9.3Zm-4.91,34.81c-2.51,3.07-5.96,4.6-10.35,4.6s-7.7-1.46-10.14-4.39c-2.51-2.85-3.76-6.76-3.76-11.71,0-4.67,1.25-8.5,3.76-11.49,2.44-3.07,5.82-4.6,10.14-4.6s7.84,1.53,10.35,4.6c2.58,3,3.86,6.83,3.86,11.49s-1.29,8.5-3.86,11.5Z"/>
        <path class="cls-9" d="m313.52,48.95v.37h0v3.34c-3.84-3.15-8.71-4.75-14.66-4.75-3.88,0-7.35.57-10.42,1.71-.13.05-.25.1-.37.15-3,1.17-5.61,2.88-7.81,5.15-4.53,4.67-6.79,10.63-6.79,17.87s2.27,13.2,6.79,17.87c2.11,2.18,4.59,3.83,7.43,4.99.24.1.51.17.76.26.02,0,.05.02.07.02.66.24,1.31.49,2.01.68,2.53.69,5.31,1.04,8.34,1.04,2.79,0,6.22-.83,8.31-1.89,2.36-1.2,5.04-2.63,6.35-5.1v5.58h0v.37h10.35v-47.66h-10.35Zm-1.36,32.65c-1.16,2.09-2.81,3.9-4.97,5.24-4.93,3.06-11.81,3.08-16.56-.34-4.32-3.11-6.52-8.49-6.52-13.72,0-7.86,4.97-15.39,13.24-16.17,9.58-.91,16.98,6.63,16.98,16.14,0,3.13-.7,6.21-2.17,8.85Z"/>
        <path class="cls-9" d="m427.57,48.95v.37h0v3.34c-3.84-3.15-8.71-4.75-14.66-4.75-3.88,0-7.35.57-10.42,1.71-.13.05-.25.1-.37.15-3,1.17-5.61,2.88-7.81,5.15-4.53,4.67-6.79,10.63-6.79,17.87s2.27,13.2,6.79,17.87c2.11,2.18,4.59,3.83,7.43,4.99.24.1.51.17.76.26.02,0,.05.02.07.02.66.24,1.31.49,2.01.68,2.53.69,5.31,1.04,8.34,1.04,2.79,0,6.22-.83,8.31-1.89,2.36-1.2,5.04-2.63,6.35-5.1v5.58h0v.37h10.35v-47.66h-10.35Zm-1.36,32.65c-1.16,2.09-2.81,3.9-4.97,5.24-4.93,3.06-11.81,3.08-16.56-.34-4.32-3.11-6.52-8.49-6.52-13.72,0-7.86,4.97-15.39,13.24-16.17,9.58-.91,16.98,6.63,16.98,16.14,0,3.13-.7,6.21-2.17,8.85Z"/>
        <path class="cls-9" d="m577.06,48.95v.37h0v3.34c-3.84-3.15-8.71-4.75-14.66-4.75-3.88,0-7.35.57-10.42,1.71-.13.05-.25.1-.37.15-3,1.17-5.61,2.88-7.81,5.15-4.53,4.67-6.79,10.63-6.79,17.87s2.27,13.2,6.79,17.87c2.11,2.18,4.59,3.83,7.43,4.99.24.1.51.17.76.26.02,0,.05.02.07.02.66.24,1.31.49,2.01.68,2.53.69,5.31,1.04,8.34,1.04,2.79,0,6.22-.83,8.31-1.89,2.36-1.2,5.04-2.63,6.35-5.1v5.58h0v.37h10.35v-47.66h-10.35Zm-1.36,32.65c-1.16,2.09-2.81,3.9-4.97,5.24-4.93,3.06-11.81,3.08-16.56-.34-4.32-3.11-6.52-8.49-6.52-13.72,0-7.86,4.97-15.39,13.24-16.17,9.58-.91,16.98,6.63,16.98,16.14,0,3.13-.7,6.21-2.17,8.85Z"/>
      </g>
      <path class="cls-5" d="m41.28,34.61c9.36-10.87,23.21-17.76,38.68-17.76,3.36,0,6.65.33,9.83.95C80.43,6.91,66.56,0,51.07,0,22.88,0,.03,22.85.03,51.04c0,5.9,1.01,11.56,2.85,16.83,5.91-16.92,20.47-29.78,38.39-33.26Z"/>
      <path class="cls-4" d="m89.48,17.89c7.67,8.93,12.32,20.54,12.32,33.23,0,5.9-1.01,11.56-2.85,16.83,1.84,5.27,2.85,10.93,2.85,16.83,0,12.72-4.66,24.34-12.36,33.28,23.5-4.57,41.25-25.25,41.25-50.09s-17.73-45.5-41.21-50.08Z"/>
      <path class="cls-10" d="m79.93,118.88c-15.49,0-29.36-6.91-38.72-17.81-17.9-3.49-32.45-16.34-38.36-33.25-1.84,5.27-2.85,10.93-2.85,16.83,0,28.19,22.85,51.04,51.04,51.04,15.47,0,29.32-6.89,38.68-17.76-3.17.62-6.44.95-9.79.95Z"/>
      <path class="cls-3" d="m2.9,67.86c5.91,16.91,20.46,29.76,38.36,33.25-7.67-8.93-12.32-20.54-12.32-33.23s4.66-24.34,12.36-33.28c-17.92,3.48-32.48,16.34-38.39,33.26Z"/>
      <path class="cls-2" d="m99.25,67.79c-6.96-19.91-25.9-34.21-48.18-34.21-3.35,0-6.62.33-9.79.95-7.69,8.94-12.36,20.56-12.36,33.28s4.65,24.3,12.32,33.23c3.18.62,6.46.95,9.83.95,22.29,0,41.23-14.29,48.18-34.21Z"/>
      <path class="cls-8" d="m50.97,33.65c22.29,0,41.23,14.29,48.18,34.21,1.84-5.27,2.85-10.93,2.85-16.83,0-12.7-4.65-24.3-12.32-33.23-3.18-.62-6.46-.95-9.83-.95-15.47,0-29.32,6.89-38.68,17.76,3.17-.62,6.44-.95,9.79-.95Z"/>
      <path class="cls-7" d="m89.67,117.89c7.69-8.94,12.36-20.56,12.36-33.28,0-5.9-1.01-11.56-2.85-16.83-6.96,19.91-25.9,34.21-48.18,34.21-3.36,0-6.65-.33-9.83-.95,9.36,10.89,23.23,17.81,38.72,17.81,3.35,0,6.62-.33,9.79-.95Z"/>
      <path class="cls-1" d="m50.75,53.52l7.58,29.01c.22.86,1.43.93,1.75.1l4.21-10.71c.13-.34.46-.57.83-.58l11.43-.32c.89-.02,1.23-1.17.49-1.67l-24.88-16.81c-.7-.48-1.62.17-1.41.99Z"/>
    </g>
  </g>
</svg>