<svg width="32" height="32" viewBox="0 0 32 32" fill="none" xmlns="http://www.w3.org/2000/svg">
<path d="M15 0C15.6667 0 16.3333 0 17 0C17.205 0.0258333 17.4092 0.0541667 17.6142 0.0758333C20.7792 0.415833 23.6158 1.56917 26.075 3.58833C29.1425 6.10667 31.0508 9.32667 31.7542 13.2425C31.8583 13.8242 31.9192 14.4133 32 14.9992V16.9992C31.9825 17.0792 31.9542 17.1592 31.9483 17.24C31.8042 19.1792 31.3408 21.0417 30.4792 22.7825C28.055 27.6825 24.1608 30.6908 18.785 31.7483C18.1958 31.8642 17.595 31.9167 16.9992 31.9983H14.9992C14.6092 31.95 14.2175 31.9083 13.8283 31.8525C10.6558 31.3967 7.85083 30.13 5.44917 28.005C2.6575 25.5342 0.915833 22.4592 0.248333 18.7858C0.141667 18.1958 0.0816667 17.5958 0 17C0 16.3333 0 15.6667 0 15C0.0483333 14.6092 0.0883333 14.2175 0.145 13.8275C0.6475 10.3517 2.11 7.34083 4.56583 4.83C6.965 2.37833 9.86083 0.841667 13.2442 0.245833C13.8258 0.143333 14.415 0.0808333 15 0ZM10.4892 15.3317C8.115 12.1967 8.76583 8.23417 11.1475 5.95833C13.5642 3.64833 17.2342 3.34333 19.9642 5.23583C21.3408 6.19083 22.2817 7.475 22.7283 9.0875C23.3583 11.3617 22.8975 13.445 21.4983 15.34C23.1208 16.1892 24.4608 17.325 25.5458 18.7575C26.6258 20.1833 27.3492 21.7783 27.7442 23.5583C31.175 18.4267 30.9025 10.6508 25.3967 5.635C19.9108 0.638334 11.5667 0.793333 6.21417 6.01083C0.9775 11.1158 0.980833 18.7292 4.24833 23.5383C5.12333 19.8817 7.19083 17.1475 10.4892 15.3317ZM16.0525 30.0117C16.3342 29.9942 16.6975 29.9775 17.0608 29.9492C20.2917 29.7017 23.0817 28.4458 25.4883 26.2908C25.8583 25.96 26.0242 25.6417 25.96 25.1183C25.4983 21.335 23.5733 18.6042 20.1625 16.9108C19.9817 16.8208 19.8533 16.8375 19.68 16.9392C17.2267 18.3733 14.7675 18.3708 12.315 16.9375C12.14 16.8358 12.0125 16.8242 11.8325 16.9133C8.2675 18.6875 6.3375 21.565 6.02167 25.5267C6.01 25.6725 6.09917 25.8708 6.2075 25.9767C8.92583 28.6125 12.19 29.9317 16.0517 30.0117H16.0525ZM16.0008 6C13.2508 6 11.0058 8.23583 11 10.9817C10.9942 13.7458 13.2375 15.9983 15.9975 15.9992C18.745 15.9992 20.9925 13.76 20.9992 11.0158C21.0058 8.25167 18.7617 6 16.0008 5.99917V6Z" fill="#EAEAEA"/>
</svg>
