<svg width="27" height="19" viewBox="0 0 27 19" fill="none" xmlns="http://www.w3.org/2000/svg">
<path d="M0.489258 12.1492C0.489258 10.5239 0.489258 8.89735 0.489258 7.27206C0.50356 7.16544 0.519163 7.05752 0.532166 6.9509C0.66999 5.79239 0.759706 4.62738 0.954741 3.47928C1.20829 1.98661 2.4279 0.878812 3.85426 0.777394C5.38203 0.669474 6.9111 0.551155 8.44148 0.506947C13.3343 0.365222 18.227 0.349618 23.112 0.769593C24.3875 0.878812 25.5876 1.82018 25.9439 3.0528C26.2911 4.25552 26.4016 5.49854 26.4432 6.74156C26.4978 8.38246 26.503 10.0259 26.4874 11.6681C26.4744 13.1075 26.3431 14.5404 26.0479 15.955C25.7411 17.4269 24.5787 18.5425 23.1549 18.6439C21.332 18.7726 19.5065 18.9026 17.6796 18.9442C13.0911 19.0483 8.50259 19.0587 3.92317 18.6595C2.62034 18.5464 1.41372 17.6206 1.04576 16.3646C0.763607 15.4011 0.679091 14.4051 0.591975 13.4105C0.555569 12.9905 0.523064 12.5718 0.489258 12.1518V12.1492ZM9.78332 9.70869C9.78332 9.97134 9.78332 10.234 9.78332 10.4953C9.78332 11.7644 9.78072 13.0347 9.78462 14.3037C9.78592 14.8576 10.0889 15.2321 10.622 15.2581C10.8547 15.2698 11.1226 15.1749 11.3267 15.05C12.77 14.1685 14.2002 13.2648 15.6344 12.369C16.6095 11.7592 17.5834 11.1481 18.5599 10.5408C18.7991 10.3926 18.989 10.2158 19.0436 9.92453C19.1307 9.45515 18.9903 9.14829 18.5391 8.86614C16.5536 7.62442 14.5669 6.3827 12.5801 5.14228C12.1354 4.86403 11.6908 4.58708 11.2461 4.31013C10.9899 4.1502 10.7234 4.08129 10.4256 4.184C10.0005 4.33093 9.78592 4.63908 9.78462 5.13707C9.78202 6.66095 9.78462 8.18352 9.78462 9.70739L9.78332 9.70869Z" fill="white"/>
</svg>
